<svg width="10" height="6" viewBox="0 0 10 6" fill="none" xmlns="http://www.w3.org/2000/svg">
<path d="M0.394531 1.10667C0.394531 0.982222 0.425642 0.865556 0.487865 0.756667C0.550087 0.647778 0.635642 0.577778 0.744531 0.546667C0.85342 0.515556 0.970087 0.507778 1.09453 0.523333C1.21898 0.538889 1.31231 0.593333 1.37453 0.686667L5.0612 4.32667L8.74786 0.686667C8.8412 0.562222 8.97342 0.5 9.14453 0.5C9.31564 0.5 9.45564 0.554444 9.56453 0.663333C9.67342 0.772222 9.72786 0.912222 9.72786 1.08333C9.72786 1.25444 9.66564 1.38667 9.5412 1.48L5.4812 5.58667C5.35675 5.68 5.21675 5.72667 5.0612 5.72667C4.90564 5.72667 4.76564 5.68 4.6412 5.58667L0.581198 1.48C0.456753 1.38667 0.394531 1.24667 0.394531 1.06V1.10667Z" fill="#161439"/>
</svg>
