<svg width="10" height="6" viewBox="0 0 10 6" fill="none" xmlns="http://www.w3.org/2000/svg">
<path d="M0.314453 1.10667C0.314453 0.982222 0.345564 0.865556 0.407786 0.756667C0.470009 0.647778 0.555564 0.577778 0.664453 0.546667C0.773342 0.515556 0.890009 0.507778 1.01445 0.523333C1.1389 0.538889 1.23223 0.593333 1.29445 0.686667L4.98112 4.32667L8.66779 0.686667C8.76112 0.562222 8.89334 0.5 9.06445 0.5C9.23556 0.5 9.37556 0.554444 9.48445 0.663333C9.59334 0.772222 9.64779 0.912222 9.64779 1.08333C9.64779 1.25444 9.58556 1.38667 9.46112 1.48L5.40112 5.58667C5.27668 5.68 5.13668 5.72667 4.98112 5.72667C4.82556 5.72667 4.68556 5.68 4.56112 5.58667L0.50112 1.48C0.376675 1.38667 0.314453 1.24667 0.314453 1.06V1.10667Z" fill="#5751E1"/>
</svg>
