<svg width="15" height="12" viewBox="0 0 15 12" fill="none" xmlns="http://www.w3.org/2000/svg">
<path d="M13.3008 2.90625C13.3008 3.04297 13.3008 3.15234 13.3008 3.28906C13.3008 7.08984 10.4297 11.4375 5.15234 11.4375C3.51172 11.4375 2.00781 10.9727 0.75 10.1523C0.96875 10.1797 1.1875 10.207 1.43359 10.207C2.77344 10.207 4.00391 9.74219 4.98828 8.97656C3.73047 8.94922 2.66406 8.12891 2.30859 6.98047C2.5 7.00781 2.66406 7.03516 2.85547 7.03516C3.10156 7.03516 3.375 6.98047 3.59375 6.92578C2.28125 6.65234 1.29688 5.50391 1.29688 4.10938V4.08203C1.67969 4.30078 2.14453 4.41016 2.60938 4.4375C1.81641 3.91797 1.32422 3.04297 1.32422 2.05859C1.32422 1.51172 1.46094 1.01953 1.70703 0.609375C3.12891 2.33203 5.26172 3.48047 7.64062 3.61719C7.58594 3.39844 7.55859 3.17969 7.55859 2.96094C7.55859 1.375 8.84375 0.0898438 10.4297 0.0898438C11.25 0.0898438 11.9883 0.417969 12.5352 0.992188C13.1641 0.855469 13.793 0.609375 14.3398 0.28125C14.1211 0.964844 13.6836 1.51172 13.082 1.86719C13.6562 1.8125 14.2305 1.64844 14.7227 1.42969C14.3398 2.00391 13.8477 2.49609 13.3008 2.90625Z" fill="#E7EFFC"/>
</svg>
