<svg width="13" height="13" viewBox="0 0 13 13" fill="none" xmlns="http://www.w3.org/2000/svg">
<path d="M11.1406 2.42969C12.2891 3.57812 13 5.08203 13 6.72266C13 10.0586 10.2109 12.793 6.84766 12.793C5.83594 12.793 4.85156 12.5195 3.94922 12.0547L0.75 12.875L1.59766 9.73047C1.07812 8.82812 0.777344 7.78906 0.777344 6.69531C0.777344 3.35938 3.51172 0.625 6.84766 0.625C8.48828 0.625 10.0195 1.28125 11.1406 2.42969ZM6.84766 11.7539C9.63672 11.7539 11.9609 9.48438 11.9609 6.72266C11.9609 5.35547 11.3867 4.09766 10.4297 3.14062C9.47266 2.18359 8.21484 1.66406 6.875 1.66406C4.08594 1.66406 1.81641 3.93359 1.81641 6.69531C1.81641 7.65234 2.08984 8.58203 2.58203 9.40234L2.71875 9.59375L2.19922 11.4531L4.11328 10.9336L4.27734 11.043C5.07031 11.5078 5.94531 11.7539 6.84766 11.7539ZM9.63672 7.98047C9.77344 8.0625 9.88281 8.08984 9.91016 8.17188C9.96484 8.22656 9.96484 8.52734 9.82812 8.88281C9.69141 9.23828 9.08984 9.56641 8.81641 9.59375C8.32422 9.67578 7.94141 9.64844 6.98438 9.21094C5.45312 8.55469 4.46875 7.02344 4.38672 6.94141C4.30469 6.83203 3.78516 6.12109 3.78516 5.35547C3.78516 4.61719 4.16797 4.26172 4.30469 4.09766C4.44141 3.93359 4.60547 3.90625 4.71484 3.90625C4.79688 3.90625 4.90625 3.90625 4.98828 3.90625C5.09766 3.90625 5.20703 3.87891 5.34375 4.17969C5.45312 4.48047 5.78125 5.21875 5.80859 5.30078C5.83594 5.38281 5.86328 5.46484 5.80859 5.57422C5.53516 6.14844 5.20703 6.12109 5.37109 6.39453C5.97266 7.40625 6.54688 7.76172 7.44922 8.19922C7.58594 8.28125 7.66797 8.25391 7.77734 8.17188C7.85938 8.0625 8.16016 7.70703 8.24219 7.57031C8.35156 7.40625 8.46094 7.43359 8.59766 7.48828C8.73438 7.54297 9.47266 7.89844 9.63672 7.98047Z" fill="#E7EFFC"/>
</svg>
