<svg width="35" height="35" viewBox="0 0 35 35" fill="none" xmlns="http://www.w3.org/2000/svg">
<mask id="mask0_6512_52" style="mask-type:alpha" maskUnits="userSpaceOnUse" x="0" y="0" width="35" height="35">
<path d="M0 17.5C0 7.83502 7.83502 0 17.5 0C27.165 0 35 7.83502 35 17.5C35 27.165 27.165 35 17.5 35C7.83502 35 0 27.165 0 17.5Z" fill="#6059F7"/>
</mask>
<g mask="url(#mask0_6512_52)">
<path d="M13.4169 19.3158C15.161 19.9096 17.0646 18.9527 17.6687 17.1784C18.2729 15.404 17.3488 13.4843 15.6048 12.8904C13.8607 12.2966 11.9571 13.2535 11.353 15.0278C10.7488 16.8021 11.6729 18.7219 13.4169 19.3158Z" fill="white"/>
<path d="M17.2625 10.2647L16.9395 9.2034L17.3659 10.2262L17.2625 10.2647Z" fill="white"/>
<path d="M17.4945 10.6114L17.468 10.3401L17.3141 10.1257L17.2031 10.3296L17.223 10.5782L17.2448 10.8177L17.3964 10.9587L17.5108 10.8321L17.4945 10.6114ZM17.3174 10.458C17.3103 10.4354 17.3087 10.4114 17.3127 10.3879C17.3168 10.3645 17.3264 10.3423 17.3407 10.3233C17.3668 10.3999 17.3446 10.5072 17.3174 10.458ZM17.2745 10.7444C17.2679 10.7217 17.2666 10.6978 17.2707 10.6744C17.2747 10.6511 17.284 10.6289 17.2978 10.6097C17.324 10.6863 17.3017 10.7935 17.2745 10.7444ZM17.4003 10.6228C17.3932 10.6002 17.3916 10.5762 17.3956 10.5527C17.3997 10.5293 17.4093 10.5071 17.4235 10.4881C17.447 10.5589 17.4236 10.6658 17.4003 10.6228ZM17.392 10.811C17.3849 10.7886 17.3832 10.7648 17.3872 10.7415C17.3912 10.7182 17.4007 10.6962 17.4149 10.6774C17.4411 10.754 17.4189 10.8612 17.392 10.811Z" fill="white"/>
<path d="M17.3789 9.10931C17.3789 9.10931 15.2067 9.06111 12.3493 7.55026C12.3493 7.55026 9.98237 11.7099 8.05469 12.9222C8.05469 12.9222 9.4911 12.4443 10.5462 12.4409L10.5779 12.407L10.5917 12.3875C10.6065 12.3648 10.6293 12.3363 10.659 12.298C10.7176 12.2237 10.8043 12.1191 10.9154 12.0022C10.9719 11.9408 11.032 11.8807 11.0956 11.8218C11.1629 11.7601 11.2332 11.6934 11.3098 11.6288C11.3865 11.5643 11.4667 11.4997 11.5494 11.4348C11.6321 11.3699 11.72 11.3104 11.8056 11.2476C11.8911 11.1849 11.984 11.1319 12.0709 11.0757L12.3352 10.9239L12.5886 10.7938C12.6686 10.751 12.7491 10.7204 12.8196 10.6876C12.8902 10.6548 12.96 10.6242 13.0184 10.6029L13.1726 10.5442L13.309 10.4928L13.1772 10.5518L13.0253 10.621C12.9662 10.6444 12.9038 10.6812 12.8336 10.7165C12.7633 10.7518 12.6902 10.7885 12.6092 10.8347L12.3663 10.9792L12.1168 11.136C12.0331 11.197 11.9476 11.2561 11.8653 11.3199C11.783 11.3838 11.7024 11.4494 11.6243 11.5183C11.5462 11.5872 11.4706 11.6521 11.4007 11.7214C11.3308 11.7907 11.2644 11.8563 11.2021 11.9209C11.1397 11.9855 11.0855 12.0504 11.0357 12.106C10.9345 12.2251 10.8585 12.3297 10.8063 12.4026C10.7806 12.4398 10.7614 12.4683 10.7501 12.4874L10.7302 12.5181L10.705 12.5676C10.8204 12.6802 10.9033 12.8228 10.9447 12.9801C10.9861 13.1375 10.9845 13.3037 10.9402 13.4611C10.9402 13.4611 13.1051 11.3916 16.0202 11.7701C16.0202 11.7701 15.956 10.1092 17.3789 9.10931Z" fill="white"/>
<path d="M8.63331 20.2967C8.68075 20.3841 9.19876 20.4191 9.2848 20.4351C9.85668 20.5396 10.4341 20.612 11.0146 20.6518C12.6853 20.7698 14.4184 20.6419 16.0044 20.0421C17.3832 19.5204 18.41 18.9091 19.602 18.0603C21.0807 17.0045 22.5458 15.4026 23.9433 14.3409C22.239 18.7001 19.9386 22.8 17.1102 26.5192C14.515 29.9121 11.4237 32.9681 7.80094 35.2157C6.26898 36.1724 4.64485 36.9663 2.95466 37.5846C2.95466 37.5846 8.68692 33.9013 12.6982 27.6303C12.6982 27.6303 5.64704 34.0532 2.67969 34.3724C2.67969 34.3724 6.98661 32.2127 8.64848 26.0095C8.64848 26.0095 15.1942 25.0037 17.2554 21.8219C17.2554 21.8219 14.7093 23.4933 9.85152 22.5113L8.63331 20.2967Z" fill="white"/>
<path d="M18.8711 16.5773L19.2316 15.0091L27.3549 9.20981L26.1654 8.91001L28.643 8.30191L27.5739 10.6986L27.497 9.45531L20.419 16.5291L18.8711 16.5773Z" fill="white"/>
</g>
</svg>
