<svg width="21" height="15" viewBox="0 0 21 15" fill="none" xmlns="http://www.w3.org/2000/svg">
<g opacity="0.6" clip-path="url(#clip0_6512_10)">
<g clip-path="url(#clip1_6512_10)">
<g clip-path="url(#clip2_6512_10)">
<path d="M18.6738 0.583252H3.00716C2.27079 0.583252 1.67383 1.22001 1.67383 2.00547V12.4944C1.67383 13.2798 2.27079 13.9166 3.00716 13.9166H18.6738C19.4102 13.9166 20.0071 13.2798 20.0071 12.4944V2.00547C20.0071 1.22001 19.4102 0.583252 18.6738 0.583252ZM10.8405 8.44441L3.15049 1.47214H18.5305L10.8405 8.44441ZM2.50716 2.05547L7.52766 6.60738L2.50716 12.3745V2.05547ZM8.16324 7.18365L10.5706 9.36632C10.6484 9.43685 10.7445 9.47214 10.8405 9.47214C10.9365 9.47214 11.0325 9.43685 11.1103 9.36632L13.5177 7.18365L18.6052 13.0277H3.07579L8.16324 7.18365ZM14.1533 6.60738L19.1738 2.05547V12.3745L14.1533 6.60738Z" fill="white"/>
</g>
</g>
</g>
<defs>
<clipPath id="clip0_6512_10">
<rect width="20" height="14" fill="white" transform="translate(0.839844 0.25)"/>
</clipPath>
<clipPath id="clip1_6512_10">
<rect width="20" height="14" fill="white" transform="translate(0.839844 0.25)"/>
</clipPath>
<clipPath id="clip2_6512_10">
<rect width="20" height="14" fill="white" transform="translate(0.839844 0.25)"/>
</clipPath>
</defs>
</svg>
