<svg width="16" height="21" viewBox="0 0 16 21" fill="none" xmlns="http://www.w3.org/2000/svg">
<g opacity="0.6" clip-path="url(#clip0_6512_4)">
<g clip-path="url(#clip1_6512_4)">
<g clip-path="url(#clip2_6512_4)">
<path d="M7.83291 0.25C5.88722 0.252201 4.02185 1.0261 2.64605 2.4019C1.27024 3.77771 0.496341 5.64308 0.494141 7.58876C0.494141 11.514 7.21788 19.746 7.50409 20.0946C7.54401 20.1432 7.5942 20.1823 7.65106 20.2092C7.70791 20.2361 7.77002 20.25 7.83291 20.25C7.89579 20.25 7.95789 20.2361 8.01475 20.2092C8.07161 20.1823 8.1218 20.1432 8.16172 20.0946C8.44793 19.746 15.1717 11.514 15.1717 7.58876C15.1695 5.64308 14.3956 3.77771 13.0198 2.4019C11.644 1.0261 9.77859 0.252201 7.83291 0.25ZM7.83291 19.1443C6.47029 17.4245 1.3452 10.7456 1.3452 7.58877C1.3452 6.73679 1.51301 5.89316 1.83905 5.10603C2.16509 4.31891 2.64297 3.60371 3.24541 3.00127C3.84785 2.39883 4.56305 1.92095 5.35017 1.59492C6.13729 1.26888 6.98093 1.10107 7.83291 1.10107C8.68488 1.10107 9.52852 1.26888 10.3156 1.59492C11.1028 1.92095 11.818 2.39883 12.4204 3.00127C13.0228 3.60371 13.5007 4.31891 13.8268 5.10603C14.1528 5.89316 14.3206 6.73679 14.3206 7.58877C14.3206 10.7456 9.19552 17.4245 7.83291 19.1443Z" fill="white"/>
<path d="M7.83292 4.34897C7.24056 4.34897 6.6615 4.52462 6.16897 4.85372C5.67644 5.18282 5.29256 5.65058 5.06587 6.19785C4.83919 6.74512 4.77988 7.34732 4.89544 7.9283C5.011 8.50928 5.29625 9.04295 5.71512 9.46181C6.13398 9.88067 6.66764 10.1659 7.24862 10.2815C7.8296 10.397 8.4318 10.3377 8.97907 10.111C9.52635 9.88436 9.99411 9.50048 10.3232 9.00795C10.6523 8.51542 10.8279 7.93636 10.8279 7.344C10.827 6.54995 10.5112 5.78868 9.94973 5.2272C9.38825 4.66572 8.62698 4.34988 7.83292 4.34897ZM7.83292 9.48797C7.40889 9.48797 6.99437 9.36223 6.6418 9.12665C6.28922 8.89106 6.01443 8.55622 5.85215 8.16446C5.68988 7.7727 5.64742 7.34162 5.73015 6.92573C5.81288 6.50984 6.01707 6.12782 6.31691 5.82798C6.61675 5.52814 6.99877 5.32395 7.41466 5.24123C7.83055 5.1585 8.26163 5.20096 8.65339 5.36323C9.04515 5.5255 9.37999 5.8003 9.61557 6.15287C9.85115 6.50545 9.97689 6.91996 9.97689 7.344C9.97624 7.91242 9.75015 8.45736 9.34822 8.85929C8.94629 9.26123 8.40134 9.48732 7.83292 9.48797Z" fill="white"/>
</g>
</g>
</g>
<defs>
<clipPath id="clip0_6512_4">
<rect width="16" height="20" fill="white" transform="translate(0 0.25)"/>
</clipPath>
<clipPath id="clip1_6512_4">
<rect width="16" height="20" fill="white" transform="translate(0 0.25)"/>
</clipPath>
<clipPath id="clip2_6512_4">
<rect width="16" height="20" fill="white" transform="translate(0 0.25)"/>
</clipPath>
</defs>
</svg>
