<svg width="21" height="21" viewBox="0 0 21 21" fill="none" xmlns="http://www.w3.org/2000/svg">
<g opacity="0.6" clip-path="url(#clip0_6512_15)">
<g clip-path="url(#clip1_6512_15)">
<g clip-path="url(#clip2_6512_15)">
<path d="M16.3343 12.6393C15.9242 12.213 15.4296 11.985 14.9054 11.985C14.3855 11.985 13.8867 12.2087 13.4597 12.6351L12.1239 13.9647C12.014 13.9056 11.9041 13.8508 11.7984 13.7959C11.6462 13.7199 11.5025 13.6481 11.3799 13.5722C10.1286 12.7786 8.99149 11.7444 7.90085 10.4063C7.37244 9.73936 7.01735 9.17794 6.75949 8.60809C7.10612 8.29151 7.4274 7.96226 7.74022 7.64567C7.85858 7.52748 7.97694 7.40507 8.09531 7.28688C8.98304 6.40044 8.98304 5.25229 8.09531 4.36585L6.94126 3.21348C6.81021 3.08262 6.67494 2.94755 6.54812 2.81247C6.29449 2.55076 6.02817 2.28061 5.75339 2.02734C5.34335 1.62211 4.85298 1.40683 4.33725 1.40683C3.82152 1.40683 3.3227 1.62211 2.89998 2.02734C2.89575 2.03156 2.89575 2.03156 2.89152 2.03578L1.45425 3.48363C0.913154 4.02394 0.604563 4.68243 0.536926 5.44646C0.435471 6.67903 0.799017 7.82718 1.07802 8.57854C1.76284 10.4232 2.78584 12.1328 4.31189 13.9647C6.16344 16.1724 8.39122 17.9157 10.936 19.1441C11.9083 19.6042 13.2061 20.1487 14.656 20.2416C14.7448 20.2458 14.8378 20.25 14.9223 20.25C15.8988 20.25 16.7189 19.8996 17.3615 19.2032C17.3657 19.1947 17.3742 19.1905 17.3784 19.1821C17.5982 18.9161 17.8518 18.6755 18.1182 18.418C18.2999 18.245 18.4859 18.0635 18.6677 17.8735C19.0862 17.4387 19.306 16.9322 19.306 16.413C19.306 15.8896 19.082 15.3872 18.655 14.9651L16.3343 12.6393ZM17.8476 17.0841C17.8434 17.0841 17.8434 17.0884 17.8476 17.0841C17.6828 17.2614 17.5137 17.4218 17.3319 17.5991C17.0571 17.8608 16.7781 18.1352 16.516 18.4434C16.0891 18.8992 15.586 19.1145 14.9266 19.1145C14.8632 19.1145 14.7955 19.1145 14.7321 19.1103C13.4766 19.0301 12.3099 18.5404 11.4348 18.1225C9.04222 16.966 6.94126 15.3239 5.19539 13.2429C3.75389 11.508 2.79007 9.90398 2.15175 8.18176C1.75861 7.13069 1.61488 6.31179 1.67829 5.53932C1.72056 5.04545 1.91079 4.636 2.26166 4.28565L3.70316 2.84624C3.9103 2.65207 4.13012 2.54654 4.34571 2.54654C4.61203 2.54654 4.82762 2.70694 4.96289 2.84202C4.96712 2.84624 4.97135 2.85046 4.97557 2.85468C5.23344 3.09529 5.47862 3.34433 5.73648 3.61026C5.86753 3.74534 6.0028 3.88042 6.13808 4.01971L7.29212 5.17209C7.74022 5.61953 7.74022 6.0332 7.29212 6.48064C7.16953 6.60305 7.05117 6.72546 6.92858 6.84366C6.57349 7.20667 6.2353 7.54436 5.86753 7.87361C5.85908 7.88206 5.85062 7.88628 5.84639 7.89472C5.48285 8.25774 5.55048 8.61231 5.62657 8.85292C5.6308 8.86558 5.63503 8.87824 5.63926 8.89091C5.93939 9.61694 6.36212 10.3008 7.00467 11.1155L7.0089 11.1197C8.17563 12.5549 9.40577 13.6735 10.7627 14.5304C10.936 14.6401 11.1136 14.7288 11.2826 14.8132C11.4348 14.8892 11.5786 14.9609 11.7012 15.0369C11.7181 15.0453 11.735 15.058 11.7519 15.0664C11.8956 15.1382 12.0309 15.172 12.1704 15.172C12.5212 15.172 12.7411 14.9525 12.8129 14.8807L14.2587 13.4371C14.4024 13.2936 14.6307 13.1205 14.897 13.1205C15.1591 13.1205 15.3747 13.2851 15.5057 13.4286C15.5099 13.4329 15.5099 13.4329 15.5142 13.4371L17.8434 15.7629C18.2788 16.1935 18.2788 16.6367 17.8476 17.0841Z" fill="white" fill-opacity="0.6"/>
<path d="M11.3291 5.00746C12.4367 5.19319 13.4428 5.71661 14.246 6.51863C15.0491 7.32065 15.5691 8.32528 15.7593 9.43121C15.8058 9.70981 16.0468 9.90398 16.3216 9.90398C16.3554 9.90398 16.385 9.89976 16.4188 9.89554C16.7316 9.84489 16.9387 9.54941 16.888 9.23704C16.6597 7.89894 16.0256 6.67903 15.0576 5.71239C14.0895 4.74575 12.8679 4.11258 11.5278 3.88464C11.215 3.83399 10.9233 4.04082 10.8684 4.34896C10.8134 4.65711 11.0163 4.95681 11.3291 5.00746Z" fill="white" fill-opacity="0.6"/>
<path d="M20.5109 9.07242C20.1347 6.86899 19.0948 4.86395 17.4968 3.26836C15.8989 1.67277 13.891 0.634369 11.6843 0.258688C11.3757 0.203813 11.0841 0.41487 11.0291 0.723013C10.9784 1.03538 11.1855 1.32664 11.4983 1.38151C13.4682 1.71498 15.2648 2.64785 16.6937 4.07037C18.1225 5.49712 19.0525 7.2911 19.3864 9.25815C19.4329 9.53675 19.6739 9.73092 19.9487 9.73092C19.9825 9.73092 20.0121 9.7267 20.0459 9.72248C20.3545 9.67605 20.5659 9.38057 20.5109 9.07242Z" fill="white" fill-opacity="0.6"/>
</g>
</g>
</g>
<defs>
<clipPath id="clip0_6512_15">
<rect width="20" height="20" fill="white" transform="translate(0.519531 0.25)"/>
</clipPath>
<clipPath id="clip1_6512_15">
<rect width="20" height="20" fill="white" transform="translate(0.519531 0.25)"/>
</clipPath>
<clipPath id="clip2_6512_15">
<rect width="20" height="20" fill="white" transform="translate(0.519531 0.25)"/>
</clipPath>
</defs>
</svg>
