<svg width="41" height="41" viewBox="0 0 41 41" fill="none" xmlns="http://www.w3.org/2000/svg">
<rect x="0.720703" y="1" width="39" height="39" rx="19.5" stroke="#7F7E97"/>
<g clip-path="url(#clip0_6512_98)">
<path d="M29.706 17.7598C29.4448 17.4321 29.053 17.2442 28.6309 17.2442H24.8218L22.7562 12.5145C22.6282 12.2212 22.2866 12.0872 21.9933 12.2154C21.7 12.3434 21.5661 12.685 21.6942 12.9783L23.5572 17.2442H16.6632L18.5262 12.9783C18.6542 12.685 18.5203 12.3435 18.227 12.2154C17.9338 12.0872 17.5922 12.2212 17.4641 12.5145L15.3986 17.2442H11.5894C11.1674 17.2442 10.7755 17.4321 10.5143 17.7598C10.2579 18.0816 10.1633 18.4951 10.2548 18.8946L12.289 27.7797C12.431 28.4001 12.9798 28.8334 13.6236 28.8334H26.5967C27.2405 28.8334 27.7893 28.4001 27.9314 27.7797L29.9656 18.8946C30.057 18.4951 29.9624 18.0815 29.706 17.7598ZM26.5967 27.6745H13.6236C13.5252 27.6745 13.439 27.6099 13.4187 27.521L11.3845 18.636C11.3685 18.5663 11.3953 18.5138 11.4207 18.4821C11.4441 18.4526 11.4973 18.4031 11.5894 18.4031H14.8925L14.7407 18.7507C14.6126 19.044 14.7465 19.3855 15.0398 19.5136C15.1153 19.5466 15.194 19.5622 15.2714 19.5622C15.4948 19.5622 15.7076 19.4323 15.8027 19.2146L16.1571 18.4032H24.0633L24.4177 19.2146C24.5128 19.4324 24.7257 19.5622 24.949 19.5622C25.0264 19.5622 25.1051 19.5466 25.1806 19.5136C25.4739 19.3856 25.6078 19.044 25.4797 18.7507L25.328 18.4031H28.631C28.7231 18.4031 28.7763 18.4526 28.7998 18.4821C28.8251 18.5139 28.8519 18.5663 28.8359 18.636L26.8018 27.5211C26.7814 27.6099 26.6951 27.6745 26.5967 27.6745Z" fill="#7F7E97"/>
<path d="M16.6342 20.9141C16.3141 20.9141 16.0547 21.1735 16.0547 21.4935V25.7429C16.0547 26.0629 16.3141 26.3224 16.6342 26.3224C16.9542 26.3224 17.2136 26.0629 17.2136 25.7429V21.4935C17.2136 21.1735 16.9542 20.9141 16.6342 20.9141Z" fill="#7F7E97"/>
<path d="M20.1107 20.9141C19.7907 20.9141 19.5312 21.1735 19.5312 21.4935V25.7429C19.5312 26.0629 19.7907 26.3224 20.1107 26.3224C20.4307 26.3224 20.6901 26.0629 20.6901 25.7429V21.4935C20.6901 21.1735 20.4307 20.9141 20.1107 20.9141Z" fill="#7F7E97"/>
<path d="M23.5872 20.9141C23.2672 20.9141 23.0078 21.1735 23.0078 21.4935V25.7429C23.0078 26.0629 23.2672 26.3224 23.5872 26.3224C23.9073 26.3224 24.1667 26.0629 24.1667 25.7429V21.4935C24.1667 21.1735 23.9073 20.9141 23.5872 20.9141Z" fill="#7F7E97"/>
</g>
<defs>
<clipPath id="clip0_6512_98">
<rect width="20" height="18" fill="white" transform="translate(10.2207 11.5)"/>
</clipPath>
</defs>
</svg>
