<svg width="41" height="41" viewBox="0 0 41 41" fill="none" xmlns="http://www.w3.org/2000/svg">
<rect x="0.720703" y="1" width="39" height="39" rx="19.5" stroke="#7F7E97"/>
<g clip-path="url(#clip0_6512_93)">
<path d="M19.9761 14.1113L19.0121 13.1205C16.7494 10.7946 12.6005 11.5972 11.1028 14.5214C10.3996 15.8968 10.241 17.8825 11.5249 20.4168C12.7618 22.8569 15.3351 25.7797 19.9761 28.9634C24.6171 25.7797 27.189 22.8569 28.4272 20.4168C29.7112 17.8812 29.5539 15.8968 28.8494 14.5214C27.3517 11.5972 23.2027 10.7933 20.94 13.1191L19.9761 14.1113ZM19.9761 30.5834C-0.638226 16.9616 13.629 6.32972 19.7395 11.9535C19.8201 12.0275 19.8994 12.1041 19.9761 12.1834C20.0519 12.1042 20.1309 12.0279 20.2127 11.9549C26.3218 6.32703 40.5904 16.9602 19.9761 30.5834Z" fill="#7F7E97"/>
</g>
<defs>
<clipPath id="clip0_6512_93">
<rect width="22" height="22" fill="white" transform="translate(9.2207 9.5)"/>
</clipPath>
</defs>
</svg>
