<svg width="45" height="45" viewBox="0 0 45 45" fill="none" xmlns="http://www.w3.org/2000/svg">
<rect x="0.220703" y="0.5" width="44" height="44" rx="22" fill="#5751E1"/>
<path d="M33.7172 32.4918L29.1926 27.9672C29.9467 27.0246 30.5437 25.9877 30.9836 24.8566C31.4235 23.7254 31.6434 22.5314 31.6434 21.2746C31.6434 19.4522 31.1721 17.7555 30.2295 16.1844C29.2869 14.6134 28.0301 13.3566 26.459 12.4139C24.888 11.4713 23.1755 11 21.3217 11C19.4679 11 17.7555 11.4713 16.1844 12.4139C14.6134 13.3566 13.3566 14.6134 12.4139 16.1844C11.4713 17.7555 11 19.4679 11 21.3217C11 23.1755 11.4713 24.888 12.4139 26.459C13.3566 28.0301 14.6134 29.2869 16.1844 30.2295C17.7555 31.1721 19.4836 31.6434 21.3689 31.6434C22.5628 31.6434 23.7254 31.4235 24.8566 30.9836C25.9877 30.5437 27.0246 29.9467 27.9672 29.1926L32.4918 33.7172C32.6803 33.9057 32.8846 34 33.1045 34C33.3245 34 33.5287 33.9057 33.7172 33.7172C33.9057 33.5287 34 33.3245 34 33.1045C34 32.8846 33.9057 32.6803 33.7172 32.4918ZM21.3689 29.8525C19.7978 29.8525 18.3525 29.4754 17.0328 28.7213C15.7131 27.9672 14.6762 26.9303 13.9221 25.6107C13.168 24.291 12.791 22.8613 12.791 21.3217C12.791 19.7821 13.168 18.3525 13.9221 17.0328C14.6762 15.7131 15.7131 14.6762 17.0328 13.9221C18.3525 13.168 19.7821 12.791 21.3217 12.791C22.8613 12.791 24.291 13.168 25.6107 13.9221C26.9303 14.6762 27.9672 15.7131 28.7213 17.0328C29.4754 18.3525 29.8525 19.7821 29.8525 21.3217C29.8525 22.8613 29.4754 24.291 28.7213 25.6107C27.9672 26.9303 26.9303 27.9672 25.6107 28.7213C24.291 29.4754 22.877 29.8525 21.3689 29.8525Z" fill="white"/>
</svg>
