<svg width="17" height="17" viewBox="0 0 17 17" fill="none" xmlns="http://www.w3.org/2000/svg">
<g clip-path="url(#clip0_6512_73)">
<path d="M9.9918 12.2778C9.62363 12.2778 9.32514 12.5763 9.32514 12.9445C9.32514 13.3126 9.62363 13.6111 9.9918 13.6111V12.2778ZM15.3251 13.6111C15.6933 13.6111 15.9918 13.3126 15.9918 12.9445C15.9918 12.5763 15.6933 12.2778 15.3251 12.2778V13.6111ZM13.3251 10.2778C13.3251 9.90961 13.0266 9.61112 12.6585 9.61112C12.2903 9.61112 11.9918 9.90961 11.9918 10.2778H13.3251ZM11.9918 15.6111C11.9918 15.9793 12.2903 16.2778 12.6585 16.2778C13.0266 16.2778 13.3251 15.9793 13.3251 15.6111H11.9918ZM9.9918 13.6111H12.6585V12.2778H9.9918V13.6111ZM15.3251 12.2778H12.6585V13.6111H15.3251V12.2778ZM13.3251 12.9445V10.2778H11.9918V12.9445H13.3251ZM11.9918 12.9445V15.6111H13.3251V12.9445H11.9918ZM1.77669 6.1889V1.92223H0.443359V6.1889H1.77669ZM1.77669 1.92223C1.77669 1.95759 1.76265 1.99151 1.73764 2.01651L0.794831 1.0737C0.569788 1.29874 0.443359 1.60397 0.443359 1.92223H1.77669ZM1.73764 2.01651C1.71264 2.04152 1.67872 2.05556 1.64336 2.05556V0.722229C1.3251 0.722229 1.01987 0.848657 0.794831 1.0737L1.73764 2.01651ZM1.64336 2.05556H5.91003V0.722229H1.64336V2.05556ZM5.91003 2.05556C5.87467 2.05556 5.84075 2.04152 5.81574 2.01651L6.75855 1.0737C6.53351 0.848657 6.22828 0.722229 5.91003 0.722229V2.05556ZM5.81574 2.01651C5.79074 1.9915 5.77669 1.95759 5.77669 1.92223H7.11003C7.11003 1.60397 6.9836 1.29875 6.75855 1.0737L5.81574 2.01651ZM5.77669 1.92223V6.1889H7.11003V1.92223H5.77669ZM5.77669 6.1889C5.77669 6.15354 5.79074 6.11962 5.81574 6.09461L6.75855 7.03742C6.9836 6.81238 7.11003 6.50715 7.11003 6.1889H5.77669ZM5.81574 6.09461C5.84075 6.06961 5.87467 6.05556 5.91003 6.05556V7.3889C6.22828 7.3889 6.53351 7.26247 6.75855 7.03742L5.81574 6.09461ZM5.91003 6.05556H1.64336V7.3889H5.91003V6.05556ZM1.64336 6.05556C1.67872 6.05556 1.71263 6.06961 1.73764 6.09461L0.794831 7.03742C1.01988 7.26247 1.3251 7.3889 1.64336 7.3889V6.05556ZM1.73764 6.09461C1.76265 6.11962 1.77669 6.15354 1.77669 6.1889H0.443359C0.443359 6.50715 0.569787 6.81238 0.794831 7.03742L1.73764 6.09461ZM1.77669 15.0778V10.8111H0.443359V15.0778H1.77669ZM1.77669 10.8111C1.77669 10.8465 1.76265 10.8804 1.73764 10.9054L0.794831 9.96258C0.569787 10.1877 0.443359 10.4929 0.443359 10.8111H1.77669ZM1.73764 10.9054C1.71263 10.9304 1.67872 10.9445 1.64336 10.9445V9.61112C1.3251 9.61112 1.01988 9.73752 0.794831 9.96258L1.73764 10.9054ZM1.64336 10.9445H5.91003V9.61112H1.64336V10.9445ZM5.91003 10.9445C5.87467 10.9445 5.84075 10.9304 5.81574 10.9054L6.75855 9.96258C6.53351 9.73752 6.22828 9.61112 5.91003 9.61112V10.9445ZM5.81574 10.9054C5.79074 10.8804 5.77669 10.8465 5.77669 10.8111H7.11003C7.11003 10.4929 6.9836 10.1877 6.75855 9.96258L5.81574 10.9054ZM5.77669 10.8111V15.0778H7.11003V10.8111H5.77669ZM5.77669 15.0778C5.77669 15.0424 5.79074 15.0085 5.81574 14.9835L6.75855 15.9263C6.9836 15.7013 7.11003 15.396 7.11003 15.0778H5.77669ZM5.81574 14.9835C5.84075 14.9585 5.87467 14.9445 5.91003 14.9445V16.2778C6.22828 16.2778 6.53351 16.1514 6.75855 15.9263L5.81574 14.9835ZM5.91003 14.9445H1.64336V16.2778H5.91003V14.9445ZM1.64336 14.9445C1.67872 14.9445 1.71263 14.9585 1.73764 14.9835L0.794831 15.9263C1.01988 16.1514 1.3251 16.2778 1.64336 16.2778V14.9445ZM1.73764 14.9835C1.76265 15.0085 1.77669 15.0424 1.77669 15.0778H0.443359C0.443359 15.396 0.569787 15.7013 0.794831 15.9263L1.73764 14.9835ZM10.6656 6.1889V1.92223H9.33225V6.1889H10.6656ZM10.6656 1.92223C10.6656 1.95759 10.6515 1.9915 10.6266 2.01651L9.68371 1.0737C9.45865 1.29875 9.33225 1.60397 9.33225 1.92223H10.6656ZM10.6266 2.01651C10.6015 2.04152 10.5676 2.05556 10.5322 2.05556V0.722229C10.214 0.722229 9.90878 0.848657 9.68371 1.0737L10.6266 2.01651ZM10.5322 2.05556H14.7989V0.722229H10.5322V2.05556ZM14.7989 2.05556C14.7635 2.05556 14.7297 2.04152 14.7046 2.01651L15.6474 1.0737C15.4224 0.848657 15.1171 0.722229 14.7989 0.722229V2.05556ZM14.7046 2.01651C14.6796 1.9915 14.6656 1.95759 14.6656 1.92223H15.9989C15.9989 1.60397 15.8725 1.29875 15.6474 1.0737L14.7046 2.01651ZM14.6656 1.92223V6.1889H15.9989V1.92223H14.6656ZM14.6656 6.1889C14.6656 6.15354 14.6796 6.11962 14.7046 6.09461L15.6474 7.03742C15.8725 6.81238 15.9989 6.50715 15.9989 6.1889H14.6656ZM14.7046 6.09461C14.7297 6.06961 14.7635 6.05556 14.7989 6.05556V7.3889C15.1171 7.3889 15.4224 7.26247 15.6474 7.03742L14.7046 6.09461ZM14.7989 6.05556H10.5322V7.3889H14.7989V6.05556ZM10.5322 6.05556C10.5676 6.05556 10.6015 6.06961 10.6266 6.09461L9.68371 7.03742C9.90878 7.26247 10.214 7.3889 10.5322 7.3889V6.05556ZM10.6266 6.09461C10.6515 6.11962 10.6656 6.15354 10.6656 6.1889H9.33225C9.33225 6.50715 9.45865 6.81238 9.68371 7.03742L10.6266 6.09461Z" fill="#5751E1"/>
</g>
<defs>
<clipPath id="clip0_6512_73">
<rect width="16" height="16" fill="white" transform="translate(0.220703 0.5)"/>
</clipPath>
</defs>
</svg>
